<?xml version="1.0" encoding="utf-8"?>
<!-- Generator: Adobe Illustrator 27.7.0, SVG Export Plug-In . SVG Version: 6.00 Build 0)  -->
<svg version="1.1" id="Layer_1" xmlns="http://www.w3.org/2000/svg" xmlns:xlink="http://www.w3.org/1999/xlink" x="0px" y="0px"
	 viewBox="0 0 24 24" style="enable-background:new 0 0 24 24;" xml:space="preserve">
<style type="text/css">
	.st0{fill:#C8CDD4;}
</style>
<path class="st0" d="M11.1,12c-1.6-1.2-5-3.7-6.8-5.1C4.6,6.6,5,6.4,5.4,6.4h13.2c0.4,0,0.8,0.2,1.1,0.5L12.3,12
	C11.9,12.3,11.5,12.3,11.1,12z M13,13.1c-0.4,0.3-0.8,0.4-1.3,0.4c-0.5,0-0.9-0.1-1.3-0.4C7.2,10.6,5.2,9.2,4,8.2v7.9
	c0,0.8,0.6,1.4,1.4,1.4h13.2c0.8,0,1.4-0.6,1.4-1.4v-8L13,13.1z"/>
</svg>
